# xmcd
#
# Track frame offsets:
#	180
#	52687
#	74074
#	114166
#	151513
#	182253
#	211340
#	256277
#
# Disc length: 3940 seconds
#
# Revision: 1
# Processed by: cddbd v1.5.1PL2 Copyright (c) Steve Scherf et al.
# Submitted via: CDmax 2.0
#
DISCID=5b0f6208
DTITLE=Eric Clapton - Going Down Slow (disc2)
DYEAR=1998
DGENRE=Blues
TTITLE0=Old Love
TTITLE1=Crossroads
TTITLE2=Have You Ever Loved a Woman
TTITLE3=I Shot the Sheriff
TTITLE4=Wonderful Tonight
TTITLE5=Tearing Us Apart
TTITLE6=Cocaine
TTITLE7=Sunshine of Your Love
EXTD=Eric Clapton\t\tvocals, guitar\nAndy Fairweather Low\tguitar\nNathan Eas
EXTD=t\t\tbass\nAlan Darby\t\tguitar\nTim Carmon\t\tkeyboards\nRicky Lawson\t
EXTD=\tdrums\nKatie Kissoon\t\tvocals\nChyna\t\t\tvocals\nCharlean Hines\t\tv
EXTD=ocals\n\nOrchestra\n\nRecorded live at Madison Square Garden, New York
EXTD=, USA on April 20th, 1998
EXTT0=
EXTT1=
EXTT2=
EXTT3=
EXTT4=
EXTT5=
EXTT6=
EXTT7=
PLAYORDER=
